<svg width="45" height="46" xmlns="http://www.w3.org/2000/svg"><g transform="translate(1 1)" fill="none"><path d="M16.323 41.161a3.579 3.579 0 0 1-3.185-1.995l-.871-1.773-1.965.2a3.42 3.42 0 0 1-.367.02 4.262 4.262 0 0 1-4.258-4.258c0-.8.23-1.584.666-2.269l1.458-2.292-2.225-1.557A6.404 6.404 0 0 1 2.839 22a6.402 6.402 0 0 1 3.266-5.563l2.088-1.177-.81-2.257a4.868 4.868 0 0 1-.286-1.648 4.98 4.98 0 0 1 3.973-4.869l1.402-.284.639-1.304a3.563 3.563 0 0 1 3.212-2.06 3.552 3.552 0 0 1 3.548 3.55v31.225a3.552 3.552 0 0 1-3.548 3.548z" fill="#56B9EA"/><circle fill="#56B9EA" cx="37.613" cy="6.387" r="3.548"/><circle fill="#56B9EA" cx="40.452" cy="18.452" r="3.548"/><circle fill="#56B9EA" cx="40.452" cy="25.548" r="3.548"/><circle fill="#56B9EA" cx="37.613" cy="37.613" r="3.548"/><path d="M22.71 26.258h9.935v-1.42H22.71v-5.677h1.419v-1.42h-1.42v-2.838h7.097v-1.42H22.71V6.388A6.395 6.395 0 0 0 16.323 0c-2.56 0-4.767 1.517-5.786 3.697l-.033.008c-3.62.734-6.246 3.952-6.246 7.65 0 .894.152 1.77.453 2.609C1.829 15.587 0 18.672 0 22a9.26 9.26 0 0 0 3.947 7.562 7.046 7.046 0 0 0-1.108 3.793 7.105 7.105 0 0 0 7.096 7.097c.214 0 .431-.012.656-.034C11.653 42.581 13.889 44 16.323 44a6.395 6.395 0 0 0 6.387-6.387v-7.097h3.548v-1.42H22.71v-2.838zm-1.42 11.355a4.973 4.973 0 0 1-4.967 4.968 4.996 4.996 0 0 1-4.635-3.193l-.209-.545-.575.1c-.348.06-.665.09-.969.09a5.684 5.684 0 0 1-5.677-5.678 5.684 5.684 0 0 1 5.677-5.678v-1.419c-2.002 0-3.81.837-5.101 2.176C2.72 26.986 1.419 24.58 1.419 22a7.84 7.84 0 0 1 4.495-7.06l.636-.3-.293-.638a6.33 6.33 0 0 1-.58-2.647c0-2.76 1.79-5.187 4.358-6.05-.061.352-.1.712-.1 1.082a6.38 6.38 0 0 0 .856 3.194l1.228-.71a4.967 4.967 0 0 1-.664-2.484 4.973 4.973 0 0 1 4.968-4.968 4.973 4.973 0 0 1 4.967 4.968v31.226z" stroke="#1D88BD" stroke-width=".5" fill="#1D88BD"/><path d="M16.323 39.742v1.42a3.552 3.552 0 0 0 3.548-3.55h-1.42a2.132 2.132 0 0 1-2.128 2.13zm-9.226-6.387h-1.42a4.262 4.262 0 0 0 4.258 4.258v-1.42a2.842 2.842 0 0 1-2.838-2.838z" fill="#1D88BD"/><path d="M38.323 35.614v-2.969a3.552 3.552 0 0 0-3.549-3.548h-7.097v1.42h7.097c1.174 0 2.13.954 2.13 2.128v2.97a2.126 2.126 0 0 0-1.42 1.998c0 1.174.955 2.129 2.129 2.129a2.132 2.132 0 0 0 2.129-2.13c0-.923-.595-1.704-1.42-1.998zm-.71 2.709a.71.71 0 0 1 0-1.42.71.71 0 0 1 0 1.42zm2.839-14.903c-.924 0-1.705.595-1.999 1.419h-4.388v1.42h4.388a2.126 2.126 0 0 0 1.999 1.418 2.132 2.132 0 0 0 2.129-2.129 2.132 2.132 0 0 0-2.13-2.129zm0 2.838a.71.71 0 0 1 0-1.42.71.71 0 0 1 0 1.42zm-1.999-8.516H25.548v1.42h12.905a2.126 2.126 0 0 0 1.999 1.419 2.132 2.132 0 0 0 2.129-2.13 2.132 2.132 0 0 0-2.13-2.128c-.923 0-1.704.595-1.998 1.419zm1.999 0a.71.71 0 0 1 0 1.42.71.71 0 0 1 0-1.42zm-2.129-6.387v-2.97a2.126 2.126 0 0 0 1.419-1.998 2.132 2.132 0 0 0-2.13-2.129 2.132 2.132 0 0 0-2.128 2.13c0 .923.595 1.704 1.42 1.998v2.969a2.132 2.132 0 0 1-2.13 2.129h-3.548v1.42h3.548a3.552 3.552 0 0 0 3.549-3.55zm-.71-5.678a.71.71 0 0 1 0 1.42.71.71 0 0 1 0-1.42z" stroke="#1D88BD" stroke-width=".5" fill="#1D88BD"/><path d="M7.72 18.366a3.552 3.552 0 0 0 0 5.018l1.004-1.004a2.13 2.13 0 0 1 0-3.01 2.13 2.13 0 0 1 3.011 0l1.004-1.004a3.552 3.552 0 0 0-5.018 0zm8.603-15.527a3.552 3.552 0 0 0-3.549 3.548h1.42c0-1.174.955-2.129 2.129-2.129 1.173 0 2.129.955 2.129 2.13h1.419a3.552 3.552 0 0 0-3.548-3.55zm2.838 13.484a3.552 3.552 0 0 0-3.548-3.549v1.42c1.174 0 2.129.955 2.129 2.129a2.132 2.132 0 0 1-2.13 2.129v1.419a3.552 3.552 0 0 0 3.55-3.548zm-7.096 14.903a3.552 3.552 0 0 0 3.548 3.548v-1.42a2.132 2.132 0 0 1-2.13-2.128c0-1.174.956-2.13 2.13-2.13v-1.419a3.552 3.552 0 0 0-3.548 3.549z" fill="#1D88BD"/></g></svg>
