<svg width="40" height="46" xmlns="http://www.w3.org/2000/svg"><g fill="none"><path d="M33.122 14.941l-.301-.492h-.6c-.137 1.138-1.082 2.124-2.375 2.124H29.5a3.269 3.269 0 0 1-3.05-2.124h-.558a2.992 2.992 0 0 1-2.86 2.124c-1.345 0-2.468-.897-2.845-2.124h-.293c-.377 1.227-1.5 2.124-2.844 2.124-1.38 0-2.49-.921-2.86-2.124h-.558a3.268 3.268 0 0 1-3.05 2.124h-.348c-1.293 0-2.238-.986-2.374-2.124h-.602l-.301.492a3.421 3.421 0 0 1-.295.405v21.755h26.756l-.065-21.832a3.485 3.485 0 0 1-.23-.328z" fill="#56B9EA"/><path fill="#1D88BD" d="M19.269 3.831h5.633v1.416h-5.633zm-4.159 0h1.408v1.416H15.11zm7.393 36.455a2.474 2.474 0 0 0-2.464-2.478 2.474 2.474 0 0 0-2.465 2.478 2.474 2.474 0 0 0 2.465 2.477 2.474 2.474 0 0 0 2.464-2.477zm-3.52 0a1.06 1.06 0 0 1 1.056-1.062 1.06 1.06 0 0 1 1.056 1.062 1.06 1.06 0 0 1-1.056 1.062 1.06 1.06 0 0 1-1.056-1.062z"/><path d="M38.163 12.299L33.35 7.094V4.539C33.35 2.588 31.837 1 29.896 1H10.182C8.24 1 6.595 2.588 6.595 4.54v2.554l-4.746 5.205c-.807.88-.996 2.107-.518 3.203a2.924 2.924 0 0 0 2.712 1.779 4.145 4.145 0 0 0 3.387-1.783c.03.064.065.128.1.19a3.056 3.056 0 0 0 2.701 1.593h.348a3.952 3.952 0 0 0 3.313-1.78c.057.093.118.183.183.273a3.655 3.655 0 0 0 2.973 1.507c1.233 0 2.32-.616 2.99-1.551a3.68 3.68 0 0 0 2.992 1.55 3.656 3.656 0 0 0 3.156-1.78 3.95 3.95 0 0 0 3.313 1.78h.347a3.054 3.054 0 0 0 2.797-1.782 4.14 4.14 0 0 0 3.383 1.783c1.19 0 2.211-.681 2.688-1.779.478-1.097.256-2.323-.551-3.203zM10.182 2.416h19.714c1.165 0 2.046.953 2.046 2.123v2.124H8.002V4.539c0-1.17 1.015-2.123 2.18-2.123zM6.356 14.57a2.722 2.722 0 0 1-2.304 1.295 1.505 1.505 0 0 1-1.415-.93 1.52 1.52 0 0 1 .28-1.676l4.756-5.18h2.657L6.356 14.57zm7.16-2.097l-.01.029-.47 1.539a2.56 2.56 0 0 1-2.457 1.824h-.347a1.662 1.662 0 0 1-1.47-.867 1.681 1.681 0 0 1 .036-1.715l3.185-5.204h2.879l-1.346 4.394zm3.499 3.392a2.23 2.23 0 0 1-1.823-.933 2.283 2.283 0 0 1-.345-2.019l1.488-4.835h2.934v5.488c0 1.268-.993 2.299-2.254 2.299zm7.855-.933a2.323 2.323 0 0 1-1.873.933c-1.261 0-2.32-1.031-2.32-2.3V8.08h3.067l1.472 4.81a2.29 2.29 0 0 1-.346 2.043zm6.446.065a1.661 1.661 0 0 1-1.47.868h-.348a2.56 2.56 0 0 1-2.457-1.824l-1.824-5.963h2.878l3.194 5.218c.316.527.327 1.162.027 1.701zm6.125-.062c-.254.582-.783.93-1.415.93a2.72 2.72 0 0 1-2.305-1.295l-1.231-2.012-.01-.016-2.732-4.463h2.657l4.757 5.18c.428.467.533 1.094.28 1.676zm-5.499 26.413c0 1.17-.88 2.123-2.046 2.123H10.182c-1.165 0-2.179-.953-2.179-2.123V37.1H6.595v4.247c0 1.951 1.645 3.539 3.587 3.539h19.714c1.941 0 3.454-1.588 3.454-3.54V37.1h-1.408v4.247z" stroke="#1D88BD" stroke-width=".5" fill="#1D88BD"/></g></svg>