<svg width="50" height="50" xmlns="http://www.w3.org/2000/svg"><g fill="none"><path d="M21.903 34.177l-.855-.09c-5.417-.572-7.971-2.174-8.078-2.242l-.53-.339 6.607-17.345h2.856v20.016zm6.194 0V14.161h2.856l6.607 17.345-.53.34c-.107.067-2.662 1.668-8.079 2.24l-.854.091z" fill="#56B9EA"/><path d="M29.645 5.645A4.65 4.65 0 0 0 25 1a4.65 4.65 0 0 0-4.645 4.645A4.65 4.65 0 0 0 25 10.29a4.65 4.65 0 0 0 4.645-4.645zM25 8.742a3.1 3.1 0 0 1-3.097-3.097A3.1 3.1 0 0 1 25 2.548a3.1 3.1 0 0 1 3.097 3.097A3.1 3.1 0 0 1 25 8.742z" stroke="#1D88BD" stroke-width=".5" fill="#1D88BD"/><path d="M44.325 11.121a6.222 6.222 0 0 0-5.39-3.153c-.808 0-1.589.17-2.322.47V6.032a2.713 2.713 0 0 0-2.71-2.71 2.713 2.713 0 0 0-2.71 2.71v4.258H18.807V6.032a2.713 2.713 0 0 0-2.71-2.71 2.713 2.713 0 0 0-2.709 2.71V13a2.713 2.713 0 0 0 2.71 2.71h4.258v19.742a2.713 2.713 0 0 0 2.71 2.71A2.7 2.7 0 0 0 25 37.345a2.7 2.7 0 0 0 1.935.815 2.713 2.713 0 0 0 2.71-2.71V15.71h4.258a2.713 2.713 0 0 0 2.71-2.71v-2.844a4.584 4.584 0 0 1 2.322-.64 4.665 4.665 0 0 1 4.197 2.666l.198.418.461.025a3.867 3.867 0 0 1-.21 7.73H33.313l.59 1.548h9.678A5.426 5.426 0 0 0 49 16.483a5.415 5.415 0 0 0-4.675-5.362zm-10.422-6.25c.64 0 1.162.521 1.162 1.161v1.162h-2.323V6.032c0-.64.521-1.161 1.161-1.161zm-8.45 6.968l-.453.453-.454-.453h.908zM16.098 4.87c.64 0 1.161.521 1.161 1.161v1.162h-2.323V6.032c0-.64.522-1.161 1.162-1.161zm12 18.142L25 24.871l-3.097-1.858v-1.11h6.194v1.11zm-5.032 13.6c-.64 0-1.162-.521-1.162-1.161V24.819l2.323 1.393v9.24c0 .64-.521 1.16-1.161 1.16zm3.87 0c-.64 0-1.16-.521-1.16-1.161v-9.24l2.322-1.393v10.633c0 .64-.521 1.16-1.162 1.16zm6.968-22.452h-5.806v6.194h-6.194V14.16h-5.806c-.64 0-1.162-.52-1.162-1.161V8.742h2.323v3.097h3.871a.77.77 0 1 0 1.494.267L25 14.483l2.377-2.377a.77.77 0 0 0 1.494-.267h3.87V8.742h2.324V13c0 .64-.522 1.161-1.162 1.161zM17.229 38.218a6.222 6.222 0 0 0-5.39-3.153 6.22 6.22 0 0 0-5.358 3.097h-.062A5.426 5.426 0 0 0 1 43.58 5.426 5.426 0 0 0 6.42 49h10.064a5.426 5.426 0 0 0 5.42-5.42 5.415 5.415 0 0 0-4.675-5.362zm-.745 9.234H6.419a3.875 3.875 0 0 1-3.87-3.871 3.875 3.875 0 0 1 4.298-3.846l.552.061.236-.502a4.663 4.663 0 0 1 4.204-2.681 4.665 4.665 0 0 1 4.197 2.666l.197.418.461.024a3.867 3.867 0 0 1-.21 7.73z" stroke="#1D88BD" stroke-width=".5" fill="#1D88BD"/></g></svg>