<svg width="58" height="40" xmlns="http://www.w3.org/2000/svg"><g fill="none"><path d="M30.747 11.146v3.732a5.384 5.384 0 0 1 3.26 3.284h3.704c-.71-3.525-3.465-6.3-6.964-7.016z" fill="#56B9EA"/><path d="M34.005 21.76c-.735 2.096-2.711 3.599-5.043 3.599-2.96 0-5.358-2.416-5.358-5.398a5.39 5.39 0 0 1 3.572-5.082v-3.73c-4.075.834-7.143 4.46-7.143 8.812 0 4.969 3.997 8.997 8.929 8.997 4.318 0 7.918-3.091 8.746-7.197h-3.703z" fill="#56B9EA"/><path d="M56.425 19.377c-.448-.527-11.169-12.91-27.463-12.91-16.295 0-27.016 12.382-27.464 12.91L1 19.96l.498.585c.448.527 11.169 12.91 27.464 12.91 16.294 0 27.015-12.383 27.463-12.91l.498-.585-.498-.584zm-15.856.584c0 6.449-5.207 11.695-11.607 11.695-6.4 0-11.608-5.246-11.608-11.695 0-6.448 5.208-11.695 11.608-11.695s11.607 5.247 11.607 11.695zm-37.176 0c1.818-1.903 8.113-7.924 17.18-10.503a13.506 13.506 0 0 0-5.004 10.503c0 4.24 1.953 8.023 4.996 10.499-9.052-2.582-15.353-8.599-17.172-10.5zM37.35 30.463a13.506 13.506 0 0 0 5.003-10.503c0-4.239-1.953-8.023-4.996-10.498 9.053 2.582 15.354 8.598 17.172 10.5-1.817 1.902-8.113 7.923-17.18 10.501z" stroke="#1D88BD" stroke-width=".5" fill="#1D88BD"/><path d="M28.962 2.869c7.532 0 14.876 2.358 21.827 7.011l.988-1.499C44.63 3.598 36.74 1.07 28.96 1.07c-6.208 0-12.352 1.554-18.266 4.617l.817 1.6c5.658-2.931 11.53-4.417 17.45-4.417zM9.762 8.25l-.886-1.562a48.108 48.108 0 0 0-2.73 1.694l.988 1.498a47.337 47.337 0 0 1 2.628-1.63zm19.2 28.804c-7.533 0-14.877-2.359-21.828-7.011l-.988 1.498c7.147 4.783 15.037 7.312 22.816 7.312 6.209 0 12.353-1.554 18.266-4.617l-.817-1.6c-5.657 2.932-11.528 4.418-17.45 4.418zm19.198-5.381l.887 1.561a48.108 48.108 0 0 0 2.73-1.693l-.987-1.499a47.222 47.222 0 0 1-2.63 1.63z" stroke="#1D88BD" stroke-width=".5" fill="#1D88BD"/></g></svg>