<svg width="40" height="46" xmlns="http://www.w3.org/2000/svg"><g fill="none"><path d="M11.373 1a6.389 6.389 0 0 0-6.382 6.382 6.404 6.404 0 0 0 2.837 5.3v2.5h7.09v-2.5a6.404 6.404 0 0 0 2.837-5.3A6.389 6.389 0 0 0 11.373 1zm0 7.8a1.418 1.418 0 1 1 0-2.836 1.418 1.418 0 0 1 0 2.835z" fill="#208191"/><path d="M39.737 1l-4.122 3.092-4.145 9.672h-3.334l-1.309-2.837h.856a2.84 2.84 0 0 0 2.836-2.836V5.255h1.418V1h-4.254v4.255H29.1V8.09a1.42 1.42 0 0 1-1.418 1.418h-1.51L24.36 5.582l2.172-1.085-7.11-3.048-2.082 7.288 2.201-1.101.86 1.892a2.83 2.83 0 0 0-2.646 2.818v1.418h-5.673V9.379A2.124 2.124 0 0 0 13.5 7.382a2.13 2.13 0 0 0-2.127-2.127 2.13 2.13 0 0 0-2.127 2.127c0 .923.595 1.703 1.418 1.997v4.385H6.11l-.11.575a15.939 15.939 0 0 0-.095 5.454l-4.832 8.62 5.348 1.22v8.936h7.09v6.382h17.02V35.07a18.675 18.675 0 0 0 7.788-15.18l-.001-2.588c0-.975-.092-1.97-.273-2.957l-.107-.581h-1.392l3.191-7.658V1zM29.101 2.418h1.418v1.418h-1.418V2.418zM11.373 6.673a.71.71 0 1 1 0 1.419.71.71 0 0 1 0-1.42zM38.32 4.816l-.784-.392.784-.588v.98zm-11.745 8.948h-2.69l-1.289-2.837h2.67l1.31 2.837zM19.59 6.026l.754-2.64 2.818 1.208-.665.333 2.115 4.582h-2.66l-1.728-3.8-.634.317zm-.416 6.32a1.42 1.42 0 0 1 1.419-1.419h.446l1.289 2.837h-3.154v-1.418zM36.9 17.303l.001 2.588a17.257 17.257 0 0 1-7.483 14.226l-.307.212v9.204H14.93V37.15H7.84V28.5l-4.602-1.049 4.148-7.4-.042-.247a14.562 14.562 0 0 1-.05-4.624h29.452c.103.712.155 1.422.155 2.122zm-3.888-3.54l3.535-8.247 1.572.786-3.109 7.462h-1.998z" stroke="#2A98A3" stroke-width=".5" fill="#2A98A3"/><path d="M12.791 20.855a3.55 3.55 0 0 0 3.546-3.546h-1.418a2.13 2.13 0 0 1-2.128 2.128 2.13 2.13 0 0 1-2.127-2.128H9.246a3.55 3.55 0 0 0 3.545 3.546z" fill="#2A98A3"/></g></svg>
