<svg xmlns="http://www.w3.org/2000/svg" viewBox="0 0 50 50"><defs><style>.cls-1,.cls-2,.cls-4{fill:none;}.cls-2,.cls-4{stroke:#0056b3;}.cls-2{stroke-linecap:round;stroke-linejoin:round;}.cls-3{fill:#ff4500;}.cls-4{stroke-miterlimit:10;}</style></defs><title>R_Django</title><g id="Layer_2" data-name="Layer 2"><g id="Layer_1-2" data-name="Layer 1"><rect class="cls-1" width="50" height="50"/><path class="cls-2" d="M24.09,20.94c1.47-1.7,1-6-1-4,1-2,0-6-2-3,0-3-.41-4.74-1.59-5.35-2-1-4.5,5.28-5,6.65"/><path class="cls-2" d="M12.63,15.74a7,7,0,0,0-4.58,2.61l0,0S6.84,16.11,6,16.82s.2,2.52.89,3.1C6.08,20.79,5.68,19,4,19a2.47,2.47,0,0,1,1,1.91c0,1.91,1,1.91,1,1.91a7.15,7.15,0,0,1-.63,2.57c-.53.88-3.51,3.86-.61,7.64C8.35,37.9,16.5,30.52,16.5,30.52a3.6,3.6,0,0,1,3.25,1c-.88,2.11-4.74,3.86-5.45,4.92s1.58,2.81,1.58,2.81c1.58,3.16,5.29,1.8,5.29,1.8l2.61-7.77,1.85-.7a34,34,0,0,1,3.86,3.34s1.54.55,2.17-.66c.52.07,2-.12,2.38-.84,1.05-1.93-.44-2.37-.44-2.37L30,30.79h.32c12.88-.13,16.17-7.2,16.17-7.2.37-1.82-1.27-2.64-4.28.38,0-4-3-1-4,0,1-3-3.94.67-5.93.28-.1-.28.44-.57,1.67-1.1s1.76-1.41,1.93-3.51,1.23-2.46,1.23-2.46c-2.46,0-2.81,2.28-3.69,3S32,20,29.67,20.68A7.83,7.83,0,0,1,28.1,21"/><ellipse class="cls-3" cx="11.64" cy="25.36" rx="1.11" ry="1.91"/><path class="cls-4" d="M6.84,20c.85-1.28,3.29-4.1,5.79-4.24"/><path class="cls-2" d="M14.49,15.21c3.34,1.23,3.33,3,4.56,4.73s2.92,2.93,5.76,1.18c.09-.06,3.09-1.06,3.19-1.12l.11.94C27.93,22,26.34,27,22.82,27c0,0-2.43.23-5.27-4.39a5,5,0,0,0-3.07-2.54V20s1.31-4.75-.8-4.75S12.57,20,12.57,20l-.2.43s-3.68,3.32-6.49,2.44"/><line class="cls-2" x1="18.31" y1="35.28" x2="15.88" y2="39.21"/><line class="cls-2" x1="31.69" y1="35.28" x2="25.95" y2="32.41"/><path class="cls-4" d="M32.12,24a8.23,8.23,0,0,0-4.95-.42"/><path class="cls-4" d="M25.83,29.61a7.66,7.66,0,0,0,4.46,1.17"/></g></g></svg>
