<svg xmlns="http://www.w3.org/2000/svg" viewBox="0 0 50 50"><defs><style>.cls-1,.cls-2{fill:none;}.cls-1{stroke:#2A98A3;stroke-miterlimit:10;stroke-width:1.3px;}</style></defs><title>R_Javascript</title><g id="Layer_2" data-name="Layer 2"><g id="Layer_1-2" data-name="Layer 1"><path id="j" class="cls-1" d="M7.5,31.7l3.83-2.32c.74,1.31,1.41,2.42,3,2.42s2.52-.6,2.52-3v-16h4.7V28.91c0,4.87-2.86,7.09-7,7.09A7.3,7.3,0,0,1,7.5,31.7"/><path id="s" class="cls-1" d="M24.14,31.2,28,29a5.12,5.12,0,0,0,4.64,2.86c1.95,0,3.19-1,3.19-2.32,0-1.61-1.28-2.18-3.43-3.12l-1.18-.5c-3.39-1.44-5.65-3.26-5.65-7.09,0-3.53,2.69-6.22,6.89-6.22a7,7,0,0,1,6.69,3.76L35.46,18.7a3.2,3.2,0,0,0-3-2,2,2,0,0,0-2.25,2c0,1.41.87,2,2.89,2.86l1.18.5c4,1.71,6.25,3.46,6.25,7.39,0,4.23-3.33,6.55-7.8,6.55s-7.19-2.08-8.57-4.81"/><rect class="cls-2" width="50" height="50"/></g></g></svg>
