<svg xmlns="http://www.w3.org/2000/svg" viewBox="0 0 50 50"><defs><style>.cls-1{fill:none;}.cls-2{fill:#ff4500;}</style></defs><title>R_Laravel</title><g id="Layer_2" data-name="Layer 2"><g id="Layer_1-2" data-name="Layer 1"><polygon class="cls-1" points="40.6 31.99 37.11 26.9 26.02 29.67 29.61 35.65 40.6 31.99"/><polygon class="cls-1" points="22.36 28.16 13.95 14.14 8.29 14.39 15.97 29.76 22.36 28.16"/><polygon class="cls-1" points="41.52 23.37 38.97 20.12 35.61 20.54 38.13 24.22 41.52 23.37"/><path class="cls-2" d="M5.82,13.6l8.91,17.83a.68.68,0,0,0,.77.35l8.36-2.09,4.63,7.72a.69.69,0,0,0,.8.29l13.37-4.46a.68.68,0,0,0,.35-1L38.73,26l5-1.25a.68.68,0,0,0,.37-1.08L40,18.45a.67.67,0,0,0-.62-.25l-5.94.74A.68.68,0,0,0,33,20l3.52,5.14-12,3L15.18,12.58a.67.67,0,0,0-.61-.33l-8.17.37a.68.68,0,0,0-.58,1Zm28.91,6.55,4.46-.56,3.2,4.07-4.48,1.12Zm2.59,6.18,4.06,5.92-12,4-4.14-6.9ZM14.23,13.63l8.91,14.85-7.43,1.86L7.5,13.93Z"/><rect class="cls-1" width="50" height="50"/></g></g></svg>