<svg xmlns="http://www.w3.org/2000/svg" viewBox="0 0 50 50"><defs><style>.cls-1,.cls-3{fill:none;}.cls-2{fill:#0056b3;}.cls-3{stroke:#0056b3;stroke-linecap:round;stroke-linejoin:round;}</style></defs><title>R_MongoDB</title><g id="Layer_2" data-name="Layer 2"><g id="Layer_1-2" data-name="Layer 1"><rect class="cls-1" width="50" height="50"/><path class="cls-2" d="M26,45l-1.07-.35a7.76,7.76,0,0,0-2.32-5.31c2.79.93,2.79-8.36,2.79-8.36s0,10.21,2.79,8.36a26.36,26.36,0,0,0-2,3.09A8.2,8.2,0,0,0,26,45Z"/><path class="cls-3" d="M26.53,39.75s9.31-6.16,7.1-18.9C31.5,11.59,26.53,8.56,26,7.4a14.86,14.86,0,0,1-1.21-2.28l.47,25.8S24.46,38.8,26.53,39.75Z"/><path class="cls-3" d="M24.33,40.1s-8.75-5.95-8.27-16.47S22.7,7.92,23.9,7a2.49,2.49,0,0,0,.89-2c.55,1.17,0,17.1.1,19C25.36,31.26,25.47,38.29,24.33,40.1Z"/></g></g></svg>
