<svg xmlns="http://www.w3.org/2000/svg" viewBox="0 0 50 50"><defs><style>.cls-1{fill:none;}.cls-2,.cls-3{fill:#ff4500;}.cls-3{fill-rule:evenodd;}</style></defs><title>R_MySQL</title><g id="Layer_2" data-name="Layer 2"><g id="Layer_1-2" data-name="Layer 1"><rect class="cls-1" width="50" height="50"/><path class="cls-2" d="M39.5,34.26A10.75,10.75,0,0,0,35,34.9c-.35.15-.9.15-1,.59.19.2.22.5.37.75a5.88,5.88,0,0,0,1.23,1.44c.48.36,1,.75,1.5,1.07.92.56,1.95.88,2.83,1.44.52.33,1,.75,1.55,1.12.25.18.42.47.75.59v-.05c-.17-.22-.22-.52-.37-.75l-.69-.69A11.39,11.39,0,0,0,38.69,38C38,37.52,36.33,36.82,36,36L36,35.91a11.72,11.72,0,0,0,1.6-.37c.8-.22,1.52-.16,2.35-.37L41,34.84v-.21c-.42-.43-.72-1-1.18-1.39A34.29,34.29,0,0,0,36,30.36c-.75-.47-1.67-.78-2.46-1.18-.27-.13-.73-.2-.91-.43a11.3,11.3,0,0,1-1-1.82c-.67-1.29-1.33-2.7-1.92-4.06a21.83,21.83,0,0,0-1.18-2.67,23.59,23.59,0,0,0-9.08-8.76,10.88,10.88,0,0,0-3-1l-1.76-.11a9.39,9.39,0,0,1-1.07-.8c-1.34-.85-4.78-2.69-5.77-.27-.63,1.53.94,3,1.5,3.79a11.49,11.49,0,0,1,1.18,1.76c.18.4.22.8.37,1.23a28.34,28.34,0,0,0,1.23,3.15,11.18,11.18,0,0,0,.85,1.44c.2.27.53.39.59.8a6.52,6.52,0,0,0-.53,1.76,10.23,10.23,0,0,0,.69,7.85c.37.6,1.25,1.88,2.46,1.39,1.06-.43.82-1.76,1.12-2.94.07-.27,0-.46.16-.64V29l1,1.92a13.09,13.09,0,0,0,3,3.15c.56.42,1,1.14,1.71,1.39v-.05H23.2c-.14-.22-.36-.31-.53-.48a12.26,12.26,0,0,1-1.23-1.39,32.5,32.5,0,0,1-2.62-4.27c-.37-.72-.7-1.51-1-2.24-.12-.28-.12-.71-.37-.85a10.69,10.69,0,0,0-1.12,1.6,13.73,13.73,0,0,0-.64,3.53c-.09,0-.05,0-.11.05-.74-.18-1-.95-1.28-1.6a10.1,10.1,0,0,1-.21-6.25c.16-.49.88-2.05.59-2.51-.14-.46-.6-.72-.85-1.07a8.4,8.4,0,0,1-.85-1.5c-.57-1.3-.84-2.75-1.44-4.06a11.88,11.88,0,0,0-1.18-1.82A10.59,10.59,0,0,1,9,10.7c-.12-.27-.29-.69-.11-1a.42.42,0,0,1,.32-.32c.31-.24,1.17.08,1.5.21a13,13,0,0,1,2.3,1.18c.35.23.7.68,1.12.8h.48c.75.17,1.59.05,2.3.27a13.88,13.88,0,0,1,3.37,1.6,20.83,20.83,0,0,1,7.32,8c.28.53.4,1,.64,1.6.49,1.14,1.11,2.31,1.6,3.42a16,16,0,0,0,1.66,3.15c.36.49,1.77.75,2.4,1a14.12,14.12,0,0,1,1.6.64c.81.49,1.59,1.07,2.35,1.6.38.27,1.54.85,1.6,1.34Z"/><path class="cls-3" d="M15.62,13.9a3.83,3.83,0,0,0-1,.11v.05h.05a7.32,7.32,0,0,0,.75,1L16,16.15l.05-.05a1.3,1.3,0,0,0,.48-1.18c-.13-.14-.15-.31-.27-.48s-.45-.35-.64-.53Z"/></g></g></svg>