<svg xmlns="http://www.w3.org/2000/svg" viewBox="0 0 50 50"><defs><style>.cls-1{fill:#ff4500;}.cls-2{fill:none;}</style></defs><title>R_Nodejs</title><g id="Layer_2" data-name="Layer 2"><g id="Layer_1-2" data-name="Layer 1"><path class="cls-1" d="M39.28,15.33,26.33,7.85a2.46,2.46,0,0,0-2.35,0L11,15.33a2.35,2.35,0,0,0-1.17,2V32.3a2.36,2.36,0,0,0,1.17,2l3.39,2a5.14,5.14,0,0,0,2.79.76c2.23,0,3.46-1.3,3.46-3.67V18.64H19V33.39a2,2,0,0,1-1,1.73A2.65,2.65,0,0,1,15.4,35L11.84,33a.77.77,0,0,1-.39-.67V17.37a.8.8,0,0,1,.39-.68L24.77,9.22a.78.78,0,0,1,.78,0l12.94,7.46a.8.8,0,0,1,.39.68V32.3a.79.79,0,0,1-.39.68L25.55,40.45a.79.79,0,0,1-.77,0l-3.33-2a7.92,7.92,0,0,1-1.72.81L24,41.81a2.4,2.4,0,0,0,2.34,0l12.94-7.47a2.36,2.36,0,0,0,1.17-2V17.37A2.36,2.36,0,0,0,39.28,15.33Z"/><path class="cls-1" d="M24.35,27.43H22.68c0,2.92,2.18,4.4,6.48,4.4,3.86,0,6.08-1.48,6.08-4.06,0-2.3-1.24-3.13-5.54-3.69-3.85-.51-4.75-.77-4.75-2.12s1.21-2.19,3.7-2.19c2.85,0,4,.67,4.41,2.66h1.68c-.24-2.89-2.12-4.18-6.08-4.18-3.46,0-5.52,1.42-5.52,3.79s1.41,3.2,5.39,3.59c4.17.41,4.9,1,4.9,2.24,0,2.16-2.28,2.44-4.26,2.44C25.88,30.31,24.67,29.58,24.35,27.43Z"/><rect class="cls-2" width="50" height="50"/></g></g></svg>