<svg xmlns="http://www.w3.org/2000/svg" viewBox="0 0 50 50"><defs><style>.cls-1{fill:none;}.cls-2{fill:#0056b3;}</style></defs><title>R_PHP</title><g id="Layer_2" data-name="Layer 2"><g id="Layer_1-2" data-name="Layer 1"><path class="cls-1" d="M25,14.6C13.67,14.6,4.49,19.26,4.49,25S13.67,35.4,25,35.4,45.51,30.74,45.51,25,36.33,14.6,25,14.6Zm2.84,7.72c-.08-.09-.32-.23-1-.23H25.07l-1.25,6.45H20.87l.63-3.22a5.06,5.06,0,0,1-.26.57,5.31,5.31,0,0,1-1,1.31,4.58,4.58,0,0,1-1.72,1,7.77,7.77,0,0,1-2.36.3H14.21l-.58,3h-3L13,19.78h4.92A4.16,4.16,0,0,1,21.16,21a3.26,3.26,0,0,1,.75,2.21l1.24-6.4H26.1l-.58,3h1.86a4.39,4.39,0,0,1,3,.78,2.59,2.59,0,0,1,.54,2.54l-1.06,5.44h-3l1-5.28C28,22.64,27.92,22.41,27.84,22.33Zm13.1,2a5.14,5.14,0,0,1-1.62,2.89,4.58,4.58,0,0,1-1.72,1,7.77,7.77,0,0,1-2.36.3H33.34l-.58,3h-3l2.28-11.75H37A4.16,4.16,0,0,1,40.3,21,3.75,3.75,0,0,1,40.94,24.32Z"/><path class="cls-1" d="M36.08,22.06H34.6l-.82,4.21H35A3.39,3.39,0,0,0,37,25.76,2.74,2.74,0,0,0,37.92,24a1.85,1.85,0,0,0-.16-1.56A2.35,2.35,0,0,0,36.08,22.06Z"/><path class="cls-1" d="M16.94,22.06H15.47l-.82,4.21h1.19a3.39,3.39,0,0,0,2.06-.51A2.74,2.74,0,0,0,18.78,24a1.84,1.84,0,0,0-.16-1.56A2.35,2.35,0,0,0,16.94,22.06Z"/><path class="cls-2" d="M25,13.3C12.77,13.3,3.19,18.44,3.19,25S12.77,36.7,25,36.7,46.81,31.56,46.81,25,37.23,13.3,25,13.3ZM25,35.4C13.67,35.4,4.49,30.74,4.49,25S13.67,14.6,25,14.6,45.51,19.26,45.51,25,36.33,35.4,25,35.4Z"/><path class="cls-2" d="M17.87,20.28H13.36L11.27,31h1.94l.58-3H16.1a7.3,7.3,0,0,0,2.21-.28,4.11,4.11,0,0,0,1.54-.92,4.65,4.65,0,0,0,1.46-2.62,3.29,3.29,0,0,0-.53-2.91A3.7,3.7,0,0,0,17.87,20.28Zm1.4,3.86a3.22,3.22,0,0,1-1.07,2,3.85,3.85,0,0,1-2.36.61H14l1-5.21h1.89a2.69,2.69,0,0,1,2,.6A2.24,2.24,0,0,1,19.27,24.14Z"/><path class="cls-2" d="M26.8,21.6a1.89,1.89,0,0,1,1.4.39,1.54,1.54,0,0,1,.18,1.38L27.48,28h2l1-5A2.14,2.14,0,0,0,30,20.93a4,4,0,0,0-2.65-.65H24.91l.58-3H23.57L21.48,28H23.4l1.25-6.45Z"/><path class="cls-2" d="M37,20.28H32.5L30.41,31h1.94l.58-3h2.31a7.31,7.31,0,0,0,2.21-.28A4.11,4.11,0,0,0,39,26.84a4.64,4.64,0,0,0,1.46-2.62,3.28,3.28,0,0,0-.53-2.91A3.7,3.7,0,0,0,37,20.28Zm1.4,3.86a3.22,3.22,0,0,1-1.07,2,3.85,3.85,0,0,1-2.36.61H33.18l1-5.21h1.89a2.69,2.69,0,0,1,2,.6A2.24,2.24,0,0,1,38.41,24.14Z"/><rect class="cls-1" width="50" height="50"/></g></g></svg>
