<svg xmlns="http://www.w3.org/2000/svg" viewBox="0 0 50 50"><defs><style>.cls-1,.cls-2{fill:none;}.cls-2{stroke:#0056b3;stroke-linecap:round;stroke-linejoin:round;}</style></defs><title>R_PostgreSQL</title><g id="Layer_2" data-name="Layer 2"><g id="Layer_1-2" data-name="Layer 1"><rect class="cls-1" width="50" height="50"/><g id="Layer_3"><path class="cls-2" d="M25.75,30.17c-.11,4,0,8.06.42,9a3.23,3.23,0,0,0,4.13,2.28C32.71,41,33.59,40,34,37.75c.28-1.63.82-6.15.89-7.08"/><path class="cls-2" d="M22.28,10S9.17,4.67,9.78,16.85c.13,2.59,3.71,19.61,8,14.47,1.56-1.88,3-3.35,3-3.35"/><path class="cls-2" d="M29.35,9.05c-.45.14,7.29-2.83,11.69,2.79,1.55,2-.25,10.1-4.56,16.5"/><path class="cls-2" d="M36.49,28.34s.28,1.38,4.36.54c1.79-.37.71,1-1.1,1.88-1.49.69-4.82.87-4.88-.09-.14-2.46,1.76-1.71,1.62-2.33s-1-1.1-1.53-2.46c-.49-1.19-6.72-10.29,1.73-8.94.31-.06-2.2-8-10.1-8.16s-7.64,9.72-7.64,9.72"/><path class="cls-2" d="M23.53,29.18c-1.1,1.23-.78,1.45-3,1.9s-.92,1.28-.06,1.49a4.53,4.53,0,0,0,5.05-1.64,1.51,1.51,0,0,0-.68-2.07A1,1,0,0,0,23.53,29.18Z"/><path class="cls-2" d="M23.46,29.16a5.82,5.82,0,0,1,.61-2.59c.56-1.51,1.86-3,.82-7.82-.77-3.57-6-.74-6-.26a24.31,24.31,0,0,1-.09,4.75,4.47,4.47,0,0,0,4.58,5.27"/><path class="cls-2" d="M22.23,18.42c0,.17.3.61.73.67a.78.78,0,0,0,.81-.45c0-.17-.3-.35-.73-.41s-.79,0-.81.19Z"/><path class="cls-2" d="M35.16,18.08c0,.17-.3.61-.73.67a.79.79,0,0,1-.81-.45c0-.17.3-.35.73-.41s.79,0,.81.19Z"/><path class="cls-2" d="M36.68,16.94c.07,1.3-.28,2.18-.32,3.56-.07,2,1,4.31-.58,6.61"/><path class="cls-2" d="M8.23,11.81"/></g></g></g></svg>
