<svg xmlns="http://www.w3.org/2000/svg" viewBox="0 0 50 50"><defs><style>.cls-1,.cls-3{fill:none;}.cls-1{stroke:#ff4500;stroke-miterlimit:10;stroke-width:1.3px;}.cls-2{fill:#ff4500;}</style></defs><title>R_Python</title><g id="Layer_2" data-name="Layer 2"><g id="Layer_1-2" data-name="Layer 1"><path class="cls-1" d="M41.88,20.24c-.77-3.1-2.39-4.67-4.82-4.67H34.18V12.63a5.3,5.3,0,0,0-4.69-5,24.88,24.88,0,0,0-4.07-.33H25.3a23.19,23.19,0,0,0-3.86.33c-3.9.69-4.68,2.42-4.68,5v2.94H14.86a5.84,5.84,0,0,0-5.79,4.67,15.47,15.47,0,0,0,0,8.31c.71,3,2.56,4.67,5.07,4.67h2.63v2.94c0,2.24,1.67,4,4.57,4.87a14.43,14.43,0,0,0,4.11.63A14.77,14.77,0,0,0,29.61,41c3-.85,4.58-2.59,4.58-4.87V33.23h2.88c3,0,4.06-2.37,4.8-4.59A14.24,14.24,0,0,0,41.88,20.24ZM30.28,36.66a.46.46,0,1,1-.92,0,.46.46,0,1,1,.92,0ZM20.67,12.15a.46.46,0,1,1,.92,0,.46.46,0,1,1-.92,0Z"/><g id="path1948"><path class="cls-2" d="M25.42,8.3a24.06,24.06,0,0,1,3.91.32,4.31,4.31,0,0,1,3.86,4V20a3.89,3.89,0,0,1-3.86,3.93H21.62a4.91,4.91,0,0,0-4.83,4.8v3.53H14.14c-2.25,0-3.56-1.63-4.11-3.92a14.44,14.44,0,0,1,0-7.85,4.82,4.82,0,0,1,4.83-3.92H25.48v-1H17.75V12.63c0-2.23.59-3.44,3.86-4a22.06,22.06,0,0,1,3.69-.32h.11m-4.29,5.31a1.47,1.47,0,1,0-1.45-1.47,1.46,1.46,0,0,0,1.45,1.47M25.42,7H25.3a23.51,23.51,0,0,0-3.91.33c-3.55.63-4.94,2.11-4.94,5.3v2.63h-1.6a6.15,6.15,0,0,0-6.09,4.91,15.74,15.74,0,0,0,0,8.46c.75,3.12,2.71,4.91,5.37,4.91h4V28.72a3.6,3.6,0,0,1,3.53-3.5h7.72A5.2,5.2,0,0,0,34.5,20V12.63a5.61,5.61,0,0,0-4.95-5.3A25.2,25.2,0,0,0,25.42,7Zm-4.29,5.31a.16.16,0,0,1-.15-.17.17.17,0,0,1,.15-.18.17.17,0,0,1,.15.18.16.16,0,0,1-.15.17Z"/></g><g id="path1950"><path class="cls-2" d="M37.06,16.56c2.25,0,3.31,1.68,3.86,3.92a13.26,13.26,0,0,1,0,7.85c-.78,2.35-1.62,3.92-3.86,3.92H25.48v1H33.2v2.94c0,2.23-1.92,3.36-3.86,3.93a13.8,13.8,0,0,1-3.88.59,13.4,13.4,0,0,1-3.83-.59c-2-.6-3.86-1.83-3.86-3.93V28.81a3.94,3.94,0,0,1,3.86-3.93h7.72A5,5,0,0,0,34.16,20V16.56h2.9M29.82,38.13a1.47,1.47,0,1,0-1.45-1.48,1.46,1.46,0,0,0,1.45,1.48m7.24-22.87h-4.2V20a3.66,3.66,0,0,1-3.53,3.6H21.62a5.26,5.26,0,0,0-5.16,5.23v7.36c0,2.39,1.75,4.28,4.8,5.17a14.74,14.74,0,0,0,4.2.64,15.08,15.08,0,0,0,4.24-.64c4.18-1.21,4.8-3.76,4.8-5.17V33.55h2.56c3.5,0,4.5-3,5.1-4.81a14.53,14.53,0,0,0,0-8.58c-.81-3.25-2.53-4.9-5.12-4.9ZM29.82,36.83a.17.17,0,0,1-.15-.18.16.16,0,0,1,.15-.17.16.16,0,0,1,.15.17.17.17,0,0,1-.15.18Z"/></g><rect class="cls-3" width="50" height="50"/></g></g></svg>