<svg xmlns="http://www.w3.org/2000/svg" viewBox="0 0 56 56"><defs><style>.cls-1{fill:#2A98A3;}.cls-2{fill:none;}</style></defs><title>R_ReactRedux</title><g id="Layer_2" data-name="Layer 2"><g id="Layer_1-2" data-name="Layer 1"><path class="cls-1" d="M33.45,13.94q-.62-.21-1.28-.4.11-.44.2-.87c1-4.69.33-8.47-1.82-9.72S25.09,3,21.67,6q-.49.43-1,.91L20,6.27C16.45,3.09,12.86,1.75,10.7,3S8,7.75,8.89,12.2q.13.64.29,1.31c-.51.14-1,.3-1.47.46C3.52,15.44.83,17.73.83,20.11S3.71,25,8.09,26.53q.52.18,1.07.34-.18.72-.31,1.42c-.83,4.37-.18,7.84,1.88,9s5.7,0,9.18-3.08q.41-.36.83-.76.54.52,1.07,1c3.37,2.9,6.7,4.07,8.76,2.88s2.82-5,1.92-9.49q-.1-.52-.24-1.06l.74-.23C37.54,25,40.5,22.6,40.5,20.11S37.73,15.41,33.45,13.94ZM22.79,7.25C25.71,4.7,28.45,3.7,29.7,4.42s1.84,3.86,1,7.91c-.05.26-.11.52-.18.79a40.57,40.57,0,0,0-5.3-.84,39.81,39.81,0,0,0-3.35-4.18Q22.33,7.65,22.79,7.25Zm-9.34,12.9C14,19.09,14.52,18,15.13,17h0c.61-1.06,1.26-2.09,1.92-3.06,1.18-.09,2.39-.14,3.61-.14h0c1.23,0,2.44,0,3.62.14.66,1,1.3,2,1.91,3.05s1.19,2.14,1.71,3.18c-.52,1.06-1.09,2.14-1.7,3.21s-1.26,2.1-1.9,3.07c-1.18.08-2.39.13-3.63.13s-2.44,0-3.59-.11c-.67-1-1.32-2-1.94-3.08h0C14.52,22.29,14,21.22,13.44,20.15Zm-.9,2q.53,1,1.12,2.05h0q.6,1,1.25,2a36.07,36.07,0,0,1-3.66-.59C11.61,24.52,12,23.34,12.55,22.15Zm0-4c-.49-1.17-.92-2.32-1.26-3.43,1.13-.25,2.34-.46,3.6-.62q-.62,1-1.22,2h0Q13.08,17.13,12.54,18.16Zm15.13,6q.61-1.05,1.15-2.1a36,36,0,0,1,1.33,3.49,36,36,0,0,1-3.7.63Q27.07,25.23,27.67,24.19Zm1.13-6q-.54-1-1.14-2.06t-1.21-2c1.27.16,2.48.37,3.62.63A36.21,36.21,0,0,1,28.8,18.16ZM20.69,9.3A36.21,36.21,0,0,1,23,12.12q-1.16-.06-2.35-.06t-2.34.05C19.1,11.1,19.89,10.16,20.69,9.3ZM11.55,4.47c1.33-.77,4.26.33,7.35,3.07l.6.55a40.58,40.58,0,0,0-3.38,4.18,41.4,41.4,0,0,0-5.29.82q-.15-.62-.27-1.22C9.81,8.06,10.3,5.19,11.55,4.47ZM9.61,25.23l-1-.31A14.35,14.35,0,0,1,4,22.47a3.5,3.5,0,0,1-1.48-2.36c0-1.44,2.15-3.29,5.74-4.54.44-.15.89-.3,1.37-.43a40.63,40.63,0,0,0,1.93,5A41.29,41.29,0,0,0,9.61,25.23ZM18.8,33a14.35,14.35,0,0,1-4.44,2.78,3.5,3.5,0,0,1-2.78.1c-1.25-.72-1.77-3.51-1.06-7.24q.12-.64.29-1.32a39.84,39.84,0,0,0,5.35.77,41.24,41.24,0,0,0,3.41,4.21Q19.17,32.63,18.8,33ZM20.73,31c-.8-.87-1.6-1.82-2.39-2.86q1.14,0,2.32,0t2.39-.05A36.06,36.06,0,0,1,20.73,31ZM31,33.4a3.5,3.5,0,0,1-1.3,2.46c-1.25.72-3.92-.22-6.81-2.7q-.5-.43-1-.91A39.83,39.83,0,0,0,25.24,28a39.55,39.55,0,0,0,5.37-.83q.12.49.21,1A14.35,14.35,0,0,1,31,33.4Zm1.44-8.46-.67.21a39.75,39.75,0,0,0-2-5,39.74,39.74,0,0,0,1.93-5q.61.18,1.18.37c3.67,1.26,5.91,3.13,5.91,4.57S36.39,23.64,32.46,24.94Z"/><circle class="cls-1" cx="20.67" cy="20.11" r="3.54"/><path class="cls-1" d="M49,39.77a1.43,1.43,0,0,0-.15-2.85h-.05a1.43,1.43,0,0,0-1.38,1.48,1.46,1.46,0,0,0,.41.94,9.11,9.11,0,0,1-4.18,4,7,7,0,0,1-3.29.84,6.8,6.8,0,0,1-.86-.05,3.54,3.54,0,0,1-2.6-1.5,3.74,3.74,0,0,1-.2-3.95,6,6,0,0,1,1.73-2c-.1-.33-.25-.89-.33-1.3-3.69,2.67-3.31,6.29-2.19,8a5.27,5.27,0,0,0,4.43,2.06,6.26,6.26,0,0,0,1.53-.18A9.77,9.77,0,0,0,49,39.77Z"/><path class="cls-1" d="M40.58,40.2A1.43,1.43,0,0,0,42,41.58h.05A1.43,1.43,0,0,0,42,38.73H42a.43.43,0,0,0-.18,0,9.33,9.33,0,0,1-1.32-5.65A6.83,6.83,0,0,1,42,29.15a4.42,4.42,0,0,1,3.13-1.43h.06c2.66,0,3.79,3.32,3.86,4.66.33.08.89.25,1.27.38C50,28.64,47.43,26.5,45,26.5a5.76,5.76,0,0,0-5.25,4.1,10.42,10.42,0,0,0,1,8.86A1.14,1.14,0,0,0,40.58,40.2Z"/><path class="cls-1" d="M45.47,33.1h-.41a1.4,1.4,0,0,0-1.25-.76h-.05a1.43,1.43,0,0,0,.05,2.85h.05a1.43,1.43,0,0,0,1.25-.87h.46A9.71,9.71,0,0,1,51,36a6.82,6.82,0,0,1,2.7,3.26,3.53,3.53,0,0,1-.05,3,3.74,3.74,0,0,1-3.49,2.09,6.51,6.51,0,0,1-2.5-.53c-.28.25-.79.66-1.15.92a7.86,7.86,0,0,0,3.29.79,5.53,5.53,0,0,0,4.94-2.7,5.75,5.75,0,0,0-1.22-6.19A10.34,10.34,0,0,0,45.47,33.1Z"/><rect class="cls-2" width="56" height="56"/></g></g></svg>
