<svg xmlns="http://www.w3.org/2000/svg" width="18" height="19" viewBox="0 0 18 19">
    <g fill="none" fill-rule="evenodd" stroke="#FFF">
        <path stroke-linejoin="round"
              d="M16.58 5.539v8c0 1-.104 1-1 1h-10c-1 0-1-.01-1-1v-11c0-1 0-1 1-1h7l4 4h-4v-4l4 4z"/>
        <path d="M6.5 8.52h6-6zm-.074 2.95h8.09-8.09z"/>
        <path stroke-linecap="round" stroke-linejoin="round"
              d="M13.512 14.59v1.871c0 1 0 1-.985 1h-10c-1 0-1 0-1-1v-12c0-1 0-1 1-1h2"/>
    </g>
</svg>
