<svg xmlns="http://www.w3.org/2000/svg" width="32" height="32" viewBox="0 0 32 32"><g fill="none" fill-rule="evenodd" stroke-linejoin="round"><path stroke="#47C1BF" d="M23.671 16.837v-5.192c0-.1-.08-.18-.177-.18H7.908a.178.178 0 0 0-.177.18v5.192"/><path stroke="#FFF" d="M28.099 12.11v17.487a.89.89 0 0 1-.885.895H4.188a.89.89 0 0 1-.885-.895V12.11"/><path stroke="#FFF" stroke-linecap="round" d="M28.099 12.11l-8.886 9.532a4.92 4.92 0 0 1-7.024 0L3.303 12.11"/><path stroke="#FFF" d="M20.5 20.278l7.076 9.887M11.032 20.402l-7.365 9.764"/><path stroke="#FFF" stroke-linecap="round" d="M28.099 12.11L19.352 2.58c-1.939-1.966-5.483-1.966-7.42 0L3.302 12.11"/><path stroke="#47C1BF" stroke-linecap="round" d="M11.197 14.897h8.855M11.197 17.583h8.855"/></g></svg>
