<svg xmlns="http://www.w3.org/2000/svg" width="32" height="32" viewBox="0 0 32 32"><g fill="none" fill-rule="evenodd"><path stroke="#FFF" d="M15.54 29.912c.434-.462 1.71-1.792 2.11-2.218a85.667 85.667 0 0 0 3.476-3.898c1.362-1.635 2.528-3.193 3.46-4.664 1.553-2.45 2.393-4.556 2.393-6.21 0-6.25-5.12-11.319-11.439-11.319-6.318 0-11.438 5.069-11.438 11.32 0 1.653.84 3.76 2.392 6.209.933 1.47 2.098 3.029 3.46 4.664a85.667 85.667 0 0 0 3.476 3.898c.4.426 1.677 1.757 2.11 2.218z"/><path stroke="#47C1BF" d="M11.925 9.411c.023.075.045.149.068.22 1.004 3.207 1.62 3.65 3.745 3.624 1.458-.019 2.454.112 3.5.651-.663-1.652-1.583-2.232-3.524-2.79-1.8-.515-2.816-.914-3.789-1.705z"/></g></svg>
