<svg xmlns="http://www.w3.org/2000/svg" width="32" height="32" viewBox="0 0 32 32"><g fill="none" fill-rule="evenodd"><path stroke="#FFF" d="M30.436 23.304c0 2.029-.717 3.76-2.153 5.195-1.435 1.435-3.166 2.152-5.194 2.152-1.658 0-3.15-.51-4.477-1.53-.982.204-1.939.306-2.87.306-1.824 0-3.568-.354-5.233-1.062-1.664-.707-3.1-1.664-4.304-2.87-1.206-1.205-2.163-2.64-2.87-4.305a13.239 13.239 0 0 1-1.062-5.232c0-.932.101-1.888.306-2.87-1.02-1.327-1.53-2.819-1.53-4.477 0-2.028.717-3.76 2.151-5.195 1.436-1.435 3.167-2.152 5.195-2.152 1.658 0 3.15.51 4.477 1.53a14.106 14.106 0 0 1 2.87-.306c1.824 0 3.568.354 5.233 1.062 1.664.708 3.1 1.664 4.305 2.87 1.205 1.205 2.162 2.64 2.87 4.305a13.229 13.229 0 0 1 1.062 5.233c0 .93-.103 1.888-.306 2.87 1.02 1.326 1.53 2.818 1.53 4.476z"/><path stroke="#47C1BF" d="M22.99 19.153c0-.566-.108-1.077-.324-1.538a3.725 3.725 0 0 0-.817-1.157c-.333-.31-.76-.597-1.28-.857a10.122 10.122 0 0 0-1.503-.62 21.3 21.3 0 0 0-1.638-.43l-1.991-.46a61.548 61.548 0 0 1-.85-.203 6.63 6.63 0 0 1-.727-.238c-.32-.122-.56-.25-.727-.399a2.102 2.102 0 0 1-.417-.526 1.628 1.628 0 0 1-.21-.824c0-1.342 1.179-1.973 3.255-1.973.603 0 1.15.086 1.64.258.485.171.88.38 1.185.632.264.218.515.439.752.663.198.187.418.347.661.479.207.113.43.169.68.169.46 0 .805-.147 1.07-.445.281-.315.419-.688.419-1.14 0-.537-.28-1.035-.883-1.513-.656-.522-1.5-.923-2.534-1.2a12.935 12.935 0 0 0-3.353-.423c-.829 0-1.631.094-2.408.282-.771.187-1.49.47-2.157.848a4.129 4.129 0 0 0-1.522 1.489c-.378.627-.569 1.357-.569 2.2 0 .715.11 1.33.325 1.845.21.504.518.918.925 1.249.435.353.907.638 1.413.857.52.223 1.15.422 1.893.595l2.793.689c1.204.294 1.947.533 2.289.75.557.349.847.893.847 1.572 0 .68-.35 1.244-.997 1.656-.599.381-1.36.566-2.278.566-.71 0-1.356-.113-1.934-.34-.57-.227-1.037-.503-1.398-.834a16.183 16.183 0 0 1-.897-.888 4.115 4.115 0 0 0-.785-.657 1.381 1.381 0 0 0-.764-.227c-.5 0-.84.135-1.063.398-.246.288-.369.65-.369 1.11 0 .963.662 1.817 2.07 2.573 1.48.795 3.255 1.194 5.332 1.194.888 0 1.735-.112 2.546-.336a8.204 8.204 0 0 0 2.21-.964 4.46 4.46 0 0 0 1.524-1.612c.378-.67.567-1.423.567-2.27z"/></g></svg>
