<svg viewBox="0 0 76 99" fill="none" xmlns="http://www.w3.org/2000/svg" id="el_cl320WCOh"><style>@-webkit-keyframes kf_el_JS_yYw8bVR_an_mePb1E4gs{0%{-webkit-transform:translate(32.08890640735626px,67.99999618530273px) rotate(0deg) translate(-32.08890640735626px,-67.99999618530273px);transform:translate(32.08890640735626px,67.99999618530273px) rotate(0deg) translate(-32.08890640735626px,-67.99999618530273px)}to{-webkit-transform:translate(32.08890640735626px,67.99999618530273px) rotate(360deg) translate(-32.08890640735626px,-67.99999618530273px);transform:translate(32.08890640735626px,67.99999618530273px) rotate(360deg) translate(-32.08890640735626px,-67.99999618530273px)}}@keyframes kf_el_JS_yYw8bVR_an_mePb1E4gs{0%{-webkit-transform:translate(32.08890640735626px,67.99999618530273px) rotate(0deg) translate(-32.08890640735626px,-67.99999618530273px);transform:translate(32.08890640735626px,67.99999618530273px) rotate(0deg) translate(-32.08890640735626px,-67.99999618530273px)}to{-webkit-transform:translate(32.08890640735626px,67.99999618530273px) rotate(360deg) translate(-32.08890640735626px,-67.99999618530273px);transform:translate(32.08890640735626px,67.99999618530273px) rotate(360deg) translate(-32.08890640735626px,-67.99999618530273px)}}@-webkit-keyframes kf_el_s2DTZ-rMJE_an_0I5Jskr8m{0%{-webkit-transform:translate(55.59050369262695px,20.003014892339706px) rotate(0deg) translate(-55.59050369262695px,-20.003014892339706px);transform:translate(55.59050369262695px,20.003014892339706px) rotate(0deg) translate(-55.59050369262695px,-20.003014892339706px)}to{-webkit-transform:translate(55.59050369262695px,20.003014892339706px) rotate(-360deg) translate(-55.59050369262695px,-20.003014892339706px);transform:translate(55.59050369262695px,20.003014892339706px) rotate(-360deg) translate(-55.59050369262695px,-20.003014892339706px)}}@keyframes kf_el_s2DTZ-rMJE_an_0I5Jskr8m{0%{-webkit-transform:translate(55.59050369262695px,20.003014892339706px) rotate(0deg) translate(-55.59050369262695px,-20.003014892339706px);transform:translate(55.59050369262695px,20.003014892339706px) rotate(0deg) translate(-55.59050369262695px,-20.003014892339706px)}to{-webkit-transform:translate(55.59050369262695px,20.003014892339706px) rotate(-360deg) translate(-55.59050369262695px,-20.003014892339706px);transform:translate(55.59050369262695px,20.003014892339706px) rotate(-360deg) translate(-55.59050369262695px,-20.003014892339706px)}}#el_cl320WCOh *{-webkit-animation-duration:10s;animation-duration:10s;-webkit-animation-iteration-count:infinite;animation-iteration-count:infinite;-webkit-animation-timing-function:cubic-bezier(0,0,1,1);animation-timing-function:cubic-bezier(0,0,1,1)}#el_JS_yYw8bVR{fill:url(#paint0_linear)}#el_s2DTZ-rMJE{fill:url(#paint1_linear)}#el_JS_yYw8bVR_an_mePb1E4gs,#el_s2DTZ-rMJE_an_0I5Jskr8m{-webkit-animation-fill-mode:backwards;animation-fill-mode:backwards;-webkit-transform:translate(55.59050369262695px,20.003014892339706px) rotate(0deg) translate(-55.59050369262695px,-20.003014892339706px);transform:translate(55.59050369262695px,20.003014892339706px) rotate(0deg) translate(-55.59050369262695px,-20.003014892339706px);-webkit-animation-name:kf_el_s2DTZ-rMJE_an_0I5Jskr8m;animation-name:kf_el_s2DTZ-rMJE_an_0I5Jskr8m;-webkit-animation-timing-function:cubic-bezier(0,0,1,1);animation-timing-function:cubic-bezier(0,0,1,1)}#el_JS_yYw8bVR_an_mePb1E4gs{-webkit-transform:translate(32.08890640735626px,67.99999618530273px) rotate(0deg) translate(-32.08890640735626px,-67.99999618530273px);transform:translate(32.08890640735626px,67.99999618530273px) rotate(0deg) translate(-32.08890640735626px,-67.99999618530273px);-webkit-animation-name:kf_el_JS_yYw8bVR_an_mePb1E4gs;animation-name:kf_el_JS_yYw8bVR_an_mePb1E4gs}</style><g id="el_JS_yYw8bVR_an_mePb1E4gs" data-animator-group="true" data-animator-type="1"><path fill-rule="evenodd" clip-rule="evenodd" d="M43.98 79.901c-6.672 6.358-17.405 6.183-23.971-.389-6.568-6.573-6.482-17.057.19-23.415 6.672-6.357 17.406-6.183 23.973.39 6.566 6.573 6.48 17.056-.192 23.414zm-34.645-.393c.454-.61.516-1.422.205-2.117-.18-.405-.35-.815-.507-1.227-.261-.69-.848-1.214-1.574-1.347l-4.836-.886a2 2 0 0 1-1.64-1.98l.06-8.96a2 2 0 0 1 1.707-1.965l4.783-.709c.74-.11 1.35-.626 1.628-1.32.16-.396.33-.788.51-1.177.32-.686.274-1.495-.164-2.112L6.764 51.85a2 2 0 0 1 .25-2.607l6.55-6.24a2 2 0 0 1 2.541-.18l4.013 2.864c.591.423 1.363.485 2.034.204.43-.18.863-.348 1.3-.503.71-.252 1.25-.848 1.385-1.589l.831-4.59a2 2 0 0 1 2.004-1.644l9.28.164A2 2 0 0 1 38.89 39.4l.78 4.688c.121.73.639 1.328 1.329 1.597.447.174.889.362 1.327.563.664.304 1.441.265 2.047-.143l4.026-2.708a2 2 0 0 1 2.531.245l6.5 6.505a2 2 0 0 1 .19 2.607l-2.778 3.738c-.453.61-.515 1.422-.205 2.116.182.407.351.817.508 1.23.262.688.848 1.21 1.572 1.343l4.839.887a2 2 0 0 1 1.639 1.981l-.06 8.96a2 2 0 0 1-1.708 1.964l-4.78.707c-.74.11-1.351.627-1.63 1.323-.159.395-.328.786-.51 1.174-.32.686-.274 1.496.165 2.114l2.742 3.859a2 2 0 0 1-.25 2.606l-6.55 6.241a2 2 0 0 1-2.542.18l-4.01-2.866c-.593-.423-1.366-.484-2.037-.202-.429.18-.861.347-1.297.501-.71.252-1.253.848-1.387 1.59l-.831 4.592a2 2 0 0 1-2.004 1.643l-9.28-.164a2 2 0 0 1-1.938-1.671l-.78-4.69c-.121-.73-.639-1.326-1.328-1.595a24.78 24.78 0 0 1-1.328-.563c-.664-.304-1.441-.266-2.047.142l-4.026 2.707a2 2 0 0 1-2.531-.246l-6.5-6.505a2 2 0 0 1-.19-2.606l2.777-3.736z" id="el_JS_yYw8bVR"/></g><g id="el_s2DTZ-rMJE_an_0I5Jskr8m" data-animator-group="true" data-animator-type="1"><path fill-rule="evenodd" clip-rule="evenodd" d="M58.305 30.223c-5.793 1.533-11.704-1.8-13.202-7.443-1.5-5.645 1.981-11.464 7.774-12.997 5.792-1.533 11.703 1.8 13.202 7.444 1.499 5.644-1.982 11.463-7.774 12.996zM38.96 19.63c.676-.308 1.114-.97 1.213-1.707.1-.737-.15-1.487-.722-1.962L37.9 14.668a2 2 0 0 1-.45-2.541l2.313-3.985a2 2 0 0 1 2.43-.869l1.894.709c.696.26 1.47.108 2.06-.343.59-.451.948-1.162.88-1.901l-.184-2.01a2 2 0 0 1 1.48-2.115L52.78.433a2 2 0 0 1 2.331 1.103l.84 1.841c.307.676.97 1.115 1.706 1.214.737.1 1.486-.15 1.962-.722l1.29-1.55a2 2 0 0 1 2.542-.448l3.99 2.318a2 2 0 0 1 .869 2.43l-.707 1.889c-.26.697-.106 1.472.346 2.063.45.59 1.16.95 1.9.882l2.013-.183a2 2 0 0 1 2.115 1.478l1.184 4.459a2 2 0 0 1-1.105 2.334l-1.836.835c-.677.308-1.116.971-1.214 1.708-.1.736.15 1.485.722 1.96l1.553 1.294a2 2 0 0 1 .45 2.541l-2.313 3.985a2 2 0 0 1-2.432.868l-1.892-.709c-.696-.26-1.47-.107-2.06.344-.59.45-.949 1.16-.88 1.9l.183 2.01a2 2 0 0 1-1.48 2.117l-4.456 1.18a2 2 0 0 1-2.332-1.105l-.839-1.84c-.307-.676-.97-1.115-1.706-1.215-.738-.1-1.487.15-1.963.722l-1.29 1.55a2 2 0 0 1-2.542.45l-3.99-2.32a2 2 0 0 1-.869-2.43l.707-1.888c.26-.697.106-1.472-.346-2.063-.45-.59-1.16-.95-1.9-.883l-2.013.183a2 2 0 0 1-2.114-1.478l-1.184-4.459a2 2 0 0 1 1.105-2.334l1.836-.834z" id="el_s2DTZ-rMJE"/></g><defs><linearGradient id="paint0_linear" x1="-11.867" y1="67.647" x2="30.725" y2="111.936" gradientUnits="userSpaceOnUse"><stop stop-color="#B4EC51"/><stop offset="1" stop-color="#429321"/></linearGradient><linearGradient id="paint1_linear" x1="27.968" y1="15.552" x2="51.143" y2="47.626" gradientUnits="userSpaceOnUse"><stop stop-color="#B4EC51"/><stop offset="1" stop-color="#429321"/></linearGradient></defs></svg>