<svg viewBox="0 0 83 75" fill="none" xmlns="http://www.w3.org/2000/svg" id="el_47b8bIqjb"><style>@-webkit-keyframes kf_el_mu0yUu1jTJ_an_O7ERfN84a{0%,27.78%,to{opacity:0}72.22%{opacity:1}}@keyframes kf_el_mu0yUu1jTJ_an_O7ERfN84a{0%,27.78%,to{opacity:0}72.22%{opacity:1}}@-webkit-keyframes kf_el_N6laGfeUer_an_2Csz85mZD{0%,27.78%,to{opacity:0}57.78%,72.22%{opacity:1}}@keyframes kf_el_N6laGfeUer_an_2Csz85mZD{0%,27.78%,to{opacity:0}57.78%,72.22%{opacity:1}}@-webkit-keyframes kf_el_gIBtgyBsMY_an_QabACmSHj{0%,27.78%,to{opacity:0}48.89%,72.22%{opacity:1}}@keyframes kf_el_gIBtgyBsMY_an_QabACmSHj{0%,27.78%,to{opacity:0}48.89%,72.22%{opacity:1}}@-webkit-keyframes kf_el_jmRZK4l4Dw_an_aDdAGV_Zo{0%,27.78%,to{opacity:0}40%,72.22%{opacity:1}}@keyframes kf_el_jmRZK4l4Dw_an_aDdAGV_Zo{0%,27.78%,to{opacity:0}40%,72.22%{opacity:1}}@-webkit-keyframes kf_el_fJDMPJ13MQ_an_oVvJXhpfE{0%,27.78%,to{opacity:0}48.89%,72.22%{opacity:1}}@keyframes kf_el_fJDMPJ13MQ_an_oVvJXhpfE{0%,27.78%,to{opacity:0}48.89%,72.22%{opacity:1}}@-webkit-keyframes kf_el_SddIBu2Yiw_an_1cUYtLERL{0%,27.78%,to{opacity:0}57.78%,72.22%{opacity:1}}@keyframes kf_el_SddIBu2Yiw_an_1cUYtLERL{0%,27.78%,to{opacity:0}57.78%,72.22%{opacity:1}}@-webkit-keyframes kf_el_VyYkL0J1t3_an_9VJe9wcCl{0%,27.78%,to{opacity:0}72.22%{opacity:1}}@keyframes kf_el_VyYkL0J1t3_an_9VJe9wcCl{0%,27.78%,to{opacity:0}72.22%{opacity:1}}@-webkit-keyframes kf_el_RycwU1YXDq_an_cpL8FPxaV{0%,to{opacity:0}27.78%,72.22%{opacity:1}}@keyframes kf_el_RycwU1YXDq_an_cpL8FPxaV{0%,to{opacity:0}27.78%,72.22%{opacity:1}}#el_47b8bIqjb *{-webkit-animation-duration:5s;animation-duration:5s;-webkit-animation-iteration-count:infinite;animation-iteration-count:infinite;-webkit-animation-timing-function:cubic-bezier(0,0,1,1);animation-timing-function:cubic-bezier(0,0,1,1)}</style><g id="el_vK920vq2bk" fill-rule="evenodd" clip-rule="evenodd"><path d="M58.8894 70.1523h.3929c-4.099-.4958-6.2851-2.0821-7.4465-3.685h-21.212c-1.1614 1.6029-3.3475 3.1892-7.4464 3.685h.2562c-1.2809 0-2.3057 1.0082-2.3057 2.2308 0 1.2394 1.0418 2.2309 2.3057 2.2309h35.4558c1.281 0 2.3057-1.0081 2.3057-2.2309.0172-1.2393-1.0247-2.2308-2.3057-2.2308z" style="fill:url(#paint0_linear)"/><path d="M76.9404 50.2464H6.02862c-.58068 0-1.05889-.4627-1.05889-1.0245V6.17528c0-.56183.47821-1.02452 1.05889-1.02452H76.9233c.5807 0 1.0589.46269 1.0589 1.02452V49.2219c0 .5618-.4612 1.0245-1.0418 1.0245zM46.301 57.1701c0 .7107-.5978 1.2891-1.3322 1.2891h-6.9853c-.7344 0-1.3321-.5784-1.3321-1.2891v-.8922c0-.7105.5977-1.2889 1.3321-1.2889h6.9853c.7344 0 1.3322.5784 1.3322 1.2889v.8922zm36.6685-8.9727V6.17524c0-3.22231-2.6985-5.833199-6.0289-5.833199H6.02887C2.69847.342041 0 2.95293 0 6.17524V57.8311c.102474 2.7432 2.44229 4.941 5.31155 4.941H77.6409c2.8692 0 5.1919-2.1978 5.3115-4.941l.0171-9.6337z" style="fill:url(#paint1_linear)"/></g><g id="el_1LdovngdlL" fill-rule="evenodd" clip-rule="evenodd"><path d="M47.631 8.62367c-.8198-.11568-1.6395-.18178-2.4764-.18178l-.034.03305v2.57786l2.5104-2.42913z" style="fill:url(#paint5_linear);-webkit-animation-fill-mode:backwards;animation-fill-mode:backwards;opacity:0;-webkit-animation-name:kf_el_mu0yUu1jTJ_an_O7ERfN84a;animation-name:kf_el_mu0yUu1jTJ_an_O7ERfN84a;-webkit-animation-timing-function:cubic-bezier(.42,0,.58,1);animation-timing-function:cubic-bezier(.42,0,.58,1)"/><path d="M49.8174 9.04858l-4.6968 4.54432v2.5778l6.6609-6.4446c-.6319-.28092-1.2982-.49574-1.9641-.67752z" style="fill:url(#paint4_linear);-webkit-animation-fill-mode:backwards;animation-fill-mode:backwards;opacity:0;-webkit-animation-name:kf_el_N6laGfeUer_an_2Csz85mZD;animation-name:kf_el_N6laGfeUer_an_2Csz85mZD;-webkit-animation-timing-function:cubic-bezier(.42,0,.58,1);animation-timing-function:cubic-bezier(.42,0,.58,1)"/><path d="M53.5748 10.8685l-8.4542 8.1797v2.5779l10.0767-9.7496c-.5297-.38-1.0762-.7105-1.6225-1.008z" style="fill:url(#paint3_linear);-webkit-animation-fill-mode:backwards;animation-fill-mode:backwards;opacity:0;-webkit-animation-name:kf_el_gIBtgyBsMY_an_QabACmSHj;animation-name:kf_el_gIBtgyBsMY_an_QabACmSHj;-webkit-animation-timing-function:cubic-bezier(.42,0,.58,1);animation-timing-function:cubic-bezier(.42,0,.58,1)"/><path d="M57.998 13.9774c-.2049-.2148-.4097-.4296-.6319-.6445-.222-.2148-.4609-.4296-.7002-.6444L45.1206 23.8756v1.3054h1.2978L57.998 13.9774z" style="fill:url(#paint7_linear);-webkit-animation-fill-mode:backwards;animation-fill-mode:backwards;opacity:0;-webkit-animation-name:kf_el_jmRZK4l4Dw_an_aDdAGV_Zo;animation-name:kf_el_jmRZK4l4Dw_an_aDdAGV_Zo;-webkit-animation-timing-function:cubic-bezier(.42,0,.58,1);animation-timing-function:cubic-bezier(.42,0,.58,1)"/><path d="M51.5134 25.5045l8.4883-8.2127c-.3074-.5288-.649-1.0576-1.0416-1.5699l-10.111 9.7826h2.6643z" style="fill:url(#paint6_linear);-webkit-animation-fill-mode:backwards;animation-fill-mode:backwards;opacity:0;-webkit-animation-name:kf_el_fJDMPJ13MQ_an_oVvJXhpfE;animation-name:kf_el_fJDMPJ13MQ_an_oVvJXhpfE;-webkit-animation-timing-function:cubic-bezier(.42,0,.58,1);animation-timing-function:cubic-bezier(.42,0,.58,1)"/><path d="M57.0892 25.2493l4.748-4.5939c-.1879-.6444-.427-1.2723-.6832-1.9003l-6.7121 6.4942h2.6473z" style="fill:url(#paint8_linear);-webkit-animation-fill-mode:backwards;animation-fill-mode:backwards;opacity:0;-webkit-animation-name:kf_el_SddIBu2Yiw_an_1cUYtLERL;animation-name:kf_el_SddIBu2Yiw_an_1cUYtLERL;-webkit-animation-timing-function:cubic-bezier(.42,0,.58,1);animation-timing-function:cubic-bezier(.42,0,.58,1)"/><path d="M60.0347 25.4804h2.6643l.0854-.0826c0-.7932-.0683-1.6029-.1879-2.3961l-2.5618 2.4787z" style="fill:url(#paint2_linear);-webkit-animation-fill-mode:backwards;animation-fill-mode:backwards;opacity:0;-webkit-animation-name:kf_el_VyYkL0J1t3_an_9VJe9wcCl;animation-name:kf_el_VyYkL0J1t3_an_9VJe9wcCl;-webkit-animation-timing-function:cubic-bezier(.42,0,.58,1);animation-timing-function:cubic-bezier(.42,0,.58,1)"/></g><path fill-rule="evenodd" clip-rule="evenodd" d="M41.0006 12.4751c-9.5983 0-17.3863 7.5352-17.3863 16.8221 0 9.2868 7.788 16.8222 17.3863 16.8222 9.5984 0 17.3864-7.5354 17.3864-16.8222H41.0006V12.4751z" style="fill:url(#paint9_linear);-webkit-animation-fill-mode:backwards;animation-fill-mode:backwards;opacity:0;-webkit-animation-name:kf_el_RycwU1YXDq_an_cpL8FPxaV;animation-name:kf_el_RycwU1YXDq_an_cpL8FPxaV;-webkit-animation-timing-function:cubic-bezier(.42,0,.58,1);animation-timing-function:cubic-bezier(.42,0,.58,1)"/><defs><linearGradient id="paint0_linear" x1="31.2469" y1="64.221" x2="30.0705" y2="74.7132" gradientUnits="userSpaceOnUse"><stop offset=".00552486" stop-color="#7347D1"/><stop offset=".58011" stop-color="#935EE2"/><stop offset="1" stop-color="#C86FFF"/></linearGradient><linearGradient id="paint1_linear" x1="20.9539" y1="-16.8718" x2="-7.86662" y2="52.5848" gradientUnits="userSpaceOnUse"><stop offset=".00552486" stop-color="#7347D1"/><stop offset=".58011" stop-color="#935EE2"/><stop offset="1" stop-color="#C86FFF"/></linearGradient><linearGradient id="paint2_linear" x1="60.7291" y1="22.3183" x2="59.4406" y2="24.9102" gradientUnits="userSpaceOnUse"><stop offset=".00552486" stop-color="#7347D1"/><stop offset=".58011" stop-color="#935EE2"/><stop offset="1" stop-color="#C86FFF"/></linearGradient><linearGradient id="paint3_linear" x1="47.6655" y1="7.90235" x2="41.5321" y2="18.3205" gradientUnits="userSpaceOnUse"><stop offset=".00552486" stop-color="#7347D1"/><stop offset=".58011" stop-color="#935EE2"/><stop offset="1" stop-color="#C86FFF"/></linearGradient><linearGradient id="paint4_linear" x1="46.8028" y1="7.0848" x2="42.7391" y2="13.9767" gradientUnits="userSpaceOnUse"><stop offset=".00552486" stop-color="#7347D1"/><stop offset=".58011" stop-color="#935EE2"/><stop offset="1" stop-color="#C86FFF"/></linearGradient><linearGradient id="paint5_linear" x1="45.7546" y1="7.72199" x2="44.2852" y2="10.2841" gradientUnits="userSpaceOnUse"><stop offset=".00552486" stop-color="#7347D1"/><stop offset=".58011" stop-color="#935EE2"/><stop offset="1" stop-color="#C86FFF"/></linearGradient><linearGradient id="paint6_linear" x1="51.6657" y1="13.0246" x2="46.6648" y2="23.3631" gradientUnits="userSpaceOnUse"><stop offset=".00552486" stop-color="#7347D1"/><stop offset=".58011" stop-color="#935EE2"/><stop offset="1" stop-color="#C86FFF"/></linearGradient><linearGradient id="paint7_linear" x1="48.3728" y1="9.24391" x2="41.5965" y2="21.9104" gradientUnits="userSpaceOnUse"><stop offset=".00552486" stop-color="#7347D1"/><stop offset=".58011" stop-color="#935EE2"/><stop offset="1" stop-color="#C86FFF"/></linearGradient><linearGradient id="paint8_linear" x1="56.3096" y1="16.9645" x2="52.9874" y2="23.8248" gradientUnits="userSpaceOnUse"><stop offset=".00552486" stop-color="#7347D1"/><stop offset=".58011" stop-color="#935EE2"/><stop offset="1" stop-color="#C86FFF"/></linearGradient><linearGradient id="paint9_linear" x1="32.3961" y1="3.19836" x2="14.1734" y2="37.3512" gradientUnits="userSpaceOnUse"><stop offset=".00552486" stop-color="#7347D1"/><stop offset=".58011" stop-color="#935EE2"/><stop offset="1" stop-color="#C86FFF"/></linearGradient></defs></svg>